<svg xmlns="http://www.w3.org/2000/svg" version="1.1" xmlns:xlink="http://www.w3.org/1999/xlink" xmlns:svgjs="http://svgjs.dev/svgjs" width="1000" height="999" viewBox="0 0 1000 999"><g transform="matrix(1,0,0,1,-0.215743440233382,-0.21552769679306039)"><svg viewBox="0 0 343 343" data-background-color="#ffffff" preserveAspectRatio="xMidYMid meet" height="999" width="1000" xmlns="http://www.w3.org/2000/svg" xmlns:xlink="http://www.w3.org/1999/xlink"><g id="tight-bounds" transform="matrix(1,0,0,1,0.0740000000000407,0.07400000000001228)"><svg viewBox="0 0 342.85155851775386 342.85155851775386" height="342.85155851775386" width="342.85155851775386"><g><svg></svg></g><g><svg viewBox="0 0 342.85155851775386 342.85155851775386" height="342.85155851775386" width="342.85155851775386"><g><path d="M0 171.426c0-94.676 76.75-171.426 171.426-171.426 94.676 0 171.426 76.75 171.426 171.426 0 94.676-76.75 171.426-171.426 171.426-94.676 0-171.426-76.75-171.426-171.426zM171.426 328.313c86.646 0 156.887-70.241 156.887-156.887 0-86.646-70.241-156.887-156.887-156.887-86.646 0-156.887 70.241-156.887 156.887 0 86.646 70.241 156.887 156.887 156.887z" data-fill-palette-color="tertiary" fill="#ff0000" stroke="transparent"></path><ellipse rx="164.56874808852186" ry="164.56874808852186" cx="171.42577925887693" cy="171.42577925887693" fill="#ff0000" stroke="transparent" stroke-width="0" fill-opacity="1" data-fill-palette-color="tertiary"></ellipse></g><g transform="matrix(1,0,0,1,64.84655864529837,90.81712786697638)"><svg viewBox="0 0 213.1584412271571 161.2173027838011" height="161.2173027838011" width="213.1584412271571"><g><svg viewBox="0 0 213.1584412271571 161.2173027838011" height="161.2173027838011" width="213.1584412271571"><g><svg viewBox="0 0 213.1584412271571 161.2173027838011" height="161.2173027838011" width="213.1584412271571"><g id="textblocktransform"><svg viewBox="0 0 213.1584412271571 161.2173027838011" height="161.2173027838011" width="213.1584412271571" id="textblock"><g><svg viewBox="0 0 213.1584412271571 161.2173027838011" height="161.2173027838011" width="213.1584412271571"><g transform="matrix(1,0,0,1,0,0)"><svg width="213.1584412271571" viewBox="3.05 -36 53.35 40.35" height="161.2173027838011" data-palette-color="#ffffff"><path d="M3.05 4.35L3.05 4.35Q3.35 2.6 3.73 0.75 4.1-1.1 4.73-3.35 5.35-5.6 6.23-8.58 7.1-11.55 8.45-15.55L8.45-15.55Q7.65-15.5 6.8-15.4 5.95-15.3 5.15-15.25L5.15-15.25Q5.2-16.6 6.35-17.38 7.5-18.15 9.35-18.5L9.35-18.5Q9.65-19.45 9.95-20.33 10.25-21.2 10.6-22.23 10.95-23.25 11.38-24.45 11.8-25.65 12.35-27.25 12.9-28.85 13.6-30.9L13.6-30.9Q13.75-31.35 14-32.15 14.25-32.95 14.25-33.65L14.25-33.65Q14.25-34.05 14.13-34.2 14-34.35 13.55-34.35L13.55-34.35Q12.45-34.35 11.35-33.4 10.25-32.45 9.38-31 8.5-29.55 8-28 7.5-26.45 7.5-25.2L7.5-25.2Q7.5-24.8 7.6-24.33 7.7-23.85 7.85-23.35L7.85-23.35Q6.05-23.35 5.3-24.2 4.55-25.05 4.55-26.35L4.55-26.35Q4.55-28.05 5.55-29.75 6.55-31.45 8.15-32.88 9.75-34.3 11.5-35.15 13.25-36 14.7-36L14.7-36Q16.15-36 16.65-35.23 17.15-34.45 17.15-33.5L17.15-33.5Q17.15-32.95 17.03-32.4 16.9-31.85 16.75-31.35L16.75-31.35 12.95-18.85Q13.6-18.9 14.3-18.93 15-18.95 15.7-18.95L15.7-18.95Q18.1-18.95 20.23-18.82 22.35-18.7 24.3-18.5L24.3-18.5Q25.4-22.05 26.33-25.03 27.25-28 28.03-30.13 28.8-32.25 29.3-33.35L29.3-33.35Q29.5-33.75 29.85-34.38 30.2-35 30.83-35.5 31.45-36 32.35-36L32.35-36Q31.65-34.2 30.75-31.33 29.85-28.45 28.9-25.05 27.95-21.65 27.1-18.3L27.1-18.3Q28-18.25 29.03-18.18 30.05-18.1 31.05-18.1L31.05-18.1Q29.8-16.85 28.7-16.57 27.6-16.3 26.6-16.3L26.6-16.3Q26.1-14.3 25.68-12.45 25.25-10.6 24.95-8.95L24.95-8.95Q24.15-5.05 23.83-2.25 23.5 0.55 23.5 2.25L23.5 2.25Q23.5 2.95 23.53 3.43 23.55 3.9 23.65 4.35L23.65 4.35Q21.5 4.15 20.68 3.23 19.85 2.3 19.85 0.2L19.85 0.2Q19.85-1.05 20.13-2.83 20.4-4.6 20.95-6.8L20.95-6.8Q21.35-8.4 22.05-10.85 22.75-13.3 23.65-16.25L23.65-16.25Q20.6-16.25 18.55-16.2 16.5-16.15 15-16.1 13.5-16.05 12-15.9L12-15.9Q11.4-13.9 10.73-11.78 10.05-9.65 9.4-7.53 8.75-5.4 8.08-3.23 7.4-1.05 6.75 1.1L6.75 1.1Q6.2 2.85 5.05 3.6 3.9 4.35 3.05 4.35ZM41.85 4.35L41.85 4.35Q39.1 4.35 36.62 3.38 34.15 2.4 32.6 0.38 31.05-1.65 31.05-4.65L31.05-4.65Q31.05-7.3 32.15-8.78 33.25-10.25 34.85-10.85 36.45-11.45 37.9-11.45L37.9-11.45Q36.45-9.9 35.72-8.15 35-6.4 35-4.65L35-4.65Q35-2.85 35.82-1.3 36.65 0.25 38.37 1.2 40.1 2.15 42.7 2.15L42.7 2.15Q44.95 2.15 47.1 1.35 49.25 0.55 50.62-1.03 52-2.6 52-4.95L52-4.95Q52-7.05 50.87-8.58 49.75-10.1 47.97-11.3 46.2-12.5 44.22-13.6 42.25-14.7 40.47-15.93 38.7-17.15 37.57-18.78 36.45-20.4 36.45-22.65L36.45-22.65Q36.45-24.75 37.45-27.05 38.45-29.35 40.35-31.4 42.25-33.45 44.9-34.73 47.55-36 50.8-36L50.8-36Q53.9-36 55.15-34.58 56.4-33.15 56.4-30.9L56.4-30.9Q56.4-29.1 55.75-27.03 55.1-24.95 54.2-23.05 53.3-21.15 52.5-19.85L52.5-19.85Q51.5-20.05 51.07-20.65 50.65-21.25 50.65-22.15L50.65-22.15Q50.65-23.2 51.1-24.53 51.55-25.85 52.12-27.28 52.7-28.7 53.12-30.08 53.55-31.45 53.55-32.5L53.55-32.5Q53.55-33.45 52.97-34 52.4-34.55 50.8-34.55L50.8-34.55Q48.45-34.55 46.45-33.48 44.45-32.4 42.95-30.73 41.45-29.05 40.65-27.18 39.85-25.3 39.85-23.8L39.85-23.8Q39.85-21.95 40.95-20.65 42.05-19.35 43.77-18.28 45.5-17.2 47.47-16.15 49.45-15.1 51.17-13.8 52.9-12.5 54-10.7 55.1-8.9 55.1-6.35L55.1-6.35Q55.1-3.75 53.95-1.78 52.8 0.2 50.85 1.58 48.9 2.95 46.55 3.65 44.2 4.35 41.85 4.35Z" opacity="1" transform="matrix(1,0,0,1,0,0)" fill="#ffffff" class="wordmark-text-0" data-fill-palette-color="quaternary" id="text-0"></path></svg></g></svg></g></svg></g></svg></g><g></g></svg></g></svg></g></svg></g><defs></defs></svg><rect width="342.85155851775386" height="342.85155851775386" fill="none" stroke="none" visibility="hidden"></rect></g></svg></g></svg>